<?xml version="1.0" encoding="UTF-8" standalone="no"?>
<svg width="54px" height="35px" viewBox="0 0 54 35" version="1.1" xmlns="http://www.w3.org/2000/svg" xmlns:xlink="http://www.w3.org/1999/xlink">
    <!-- Generator: Sketch 3.8.3 (29802) - http://www.bohemiancoding.com/sketch -->
    <title>logo-eco-topbar-alt</title>
    <desc>Created with Sketch.</desc>
    <defs>
        <polygon id="path-1" points="7.82340312e-05 25 13.4183881 25 13.4183881 0.0208461538 7.82340312e-05 0.0208461538"></polygon>
        <polygon id="path-3" points="5.9999547 0.100769231 0.362234016 0.100769231 0.362234016 4.66792475 5.9999547 4.66792475 5.9999547 0.100769231"></polygon>
        <polygon id="path-5" points="1.05811527 4.71088462 1.05811527 0.0916538462 0.364727053 0.0916538462 0.364727053 4.71088462 1.05811527 4.71088462"></polygon>
    </defs>
    <g id="Welcome" stroke="none" stroke-width="1" fill="none" fill-rule="evenodd">
        <g id="Desktop-HD" transform="translate(-384.000000, -13.000000)">
            <g id="logo-eco-topbar-alt" transform="translate(384.000000, 13.000000)">
                <g id="Group-3" transform="translate(0.000000, 9.899346)">
                    <mask id="mask-2" fill="white">
                        <use xlink:href="#path-1"></use>
                    </mask>
                    <g id="Clip-2"></g>
                    <path d="M9.35608602,13.3758462 C9.26689922,11.9958462 9.04314989,10.4723846 8.68640271,8.807 C8.26159192,6.72546154 7.5907351,5.68469231 6.67539694,5.68469231 C5.33407448,5.68469231 4.51887587,8.36892308 4.22862762,13.737 C5.32312171,13.8031538 7.00984742,13.8689231 9.28919592,13.9343077 L9.35608602,13.3758462 Z M13.4183881,15.1416154 C13.4183881,15.6885385 13.2185001,16.1585385 12.8191154,16.552 C12.4193395,16.9458462 11.9417207,17.1423846 11.3874326,17.1423846 C11.1875447,17.1423846 10.8879083,17.1700769 10.4885236,17.2246923 C10.0887477,17.2793077 9.78911138,17.3066154 9.58922343,17.3066154 C9.78911138,17.3066154 7.95765271,17.2412308 4.09562976,17.1100769 C4.11714412,19.6854615 4.88305529,20.9735385 6.39297209,20.9735385 C6.68126449,20.9735385 6.82560628,20.742 6.82560628,20.2785385 C6.82560628,19.5285385 7.24689654,18.922 8.09104173,18.4585385 C8.77871887,18.0835385 9.53367727,17.8958462 10.3551346,17.8958462 C12.0199548,17.8958462 12.8523649,18.4743077 12.8523649,19.6308462 C12.8523649,20.8750769 12.1028829,22.0812308 10.6047012,23.2485385 C9.10651946,24.4158462 7.7022186,25.0000769 6.39297209,25.0000769 C4.15039359,25.0000769 2.47462064,24.1585385 1.36526208,22.4762308 C0.454617955,21.0777692 7.82340312e-05,19.2196923 7.82340312e-05,16.9031538 C7.82340312e-05,12.5104615 0.26646511,9.12315385 0.799238862,6.74084615 C1.79789627,2.26084615 3.75100886,0.0208461538 6.65935896,0.0208461538 C9.23404093,0.0208461538 11.0651084,1.57315385 12.1529526,4.67853846 C12.9963155,7.08392308 13.4183881,9.67546154 13.4183881,12.452 L13.4183881,15.1416154 Z" id="Fill-1" fill="#F26E45" mask="url(#mask-2)"></path>
                </g>
                <path d="M27.7353331,18.5629231 C27.7353331,19.3486923 27.3691979,20.0036923 26.6365362,20.5271538 C25.9042656,21.051 25.1270105,21.3129231 24.3059444,21.3129231 C23.1512101,21.3129231 22.5742341,20.8113846 22.5742341,19.8071538 C22.5742341,18.6283077 22.4298923,17.6248462 22.1415999,16.7952308 C21.7199185,15.5294615 21.031459,14.8963846 20.0770038,14.8963846 C19.744118,14.8963846 19.4996367,15.1152308 19.3447333,15.5525385 C19.3224366,15.6836923 19.2445937,16.0444615 19.1115959,16.6352308 C18.3789342,20.2221538 18.0127989,23.7867692 18.0127989,27.3298462 C18.0127989,28.9483077 18.0237517,29.8013846 18.0460484,29.8883077 C18.2013429,30.501 18.7227727,30.8071538 19.6111202,30.8071538 C20.3652962,30.8071538 20.8206183,30.6206154 20.976304,30.2463846 C21.0205062,30.0929231 21.0428029,29.5321538 21.0428029,28.5644615 C21.0428029,27.8833077 21.2923695,27.3279231 21.7918938,26.8994615 C22.2914181,26.471 22.8848232,26.2563846 23.5732827,26.2563846 C24.8606237,26.2563846 25.5044897,26.846 25.5044897,28.0244615 C25.5044897,32.5640769 23.5400332,34.8340769 19.6111202,34.8340769 C17.2355438,34.8340769 15.6262698,34.0483077 14.7832981,32.4767692 C14.2055398,31.4075385 13.9172474,29.6833077 13.9172474,27.3040769 C13.9172474,25.0344615 14.0615892,22.5463846 14.3502727,19.8398462 C14.6608618,16.8279231 15.0379499,14.7652308 15.4823192,13.6521538 C16.3698843,11.3606154 17.9017066,10.2144615 20.0770038,10.2144615 C22.2965033,10.2144615 24.1502587,11.0771538 25.6374876,12.801 C27.0363121,14.4163846 27.7353331,16.3367692 27.7353331,18.5629231" id="Fill-4" fill="#F26E45"></path>
                <path d="M37.5575766,25.2743846 C37.5575766,23.9866923 37.3678591,23.0047692 36.9888152,22.3278462 C36.8100505,22.0659231 36.5643956,21.6516923 36.2522418,21.084 C35.9850726,20.5820769 35.5274035,19.5997692 34.8804081,18.1374615 C33.8316809,18.8143846 32.8834844,20.1459231 32.0362099,22.1313077 C31.2996365,23.8124615 30.9315454,25.2416923 30.9315454,26.4201538 C30.9315454,28.5374615 31.9912253,29.8143846 34.1109764,30.2505385 C34.2443654,30.1851538 34.4340829,30.1416923 34.6793466,30.1193846 C35.7053859,29.9886154 36.4756,29.3778462 36.9888152,28.2863077 C37.3678591,27.4351538 37.5575766,26.4313077 37.5575766,25.2743846 M41.6194875,24.7320769 C41.6194875,29.3520769 40.0098223,32.2286154 36.7916655,33.3616923 C36.3918896,33.8409231 35.848163,34.0697692 35.1600947,34.0482308 C32.7180195,33.9605385 30.7426102,33.2197692 29.2334757,31.8255385 C27.65706,30.3870769 26.8696345,28.4805385 26.8696345,26.1051538 C26.8696345,23.4032308 27.6351545,20.6678462 29.1669768,17.9005385 C31.0316849,14.5228462 33.2288877,12.834 35.7597586,12.834 C36.6469325,12.834 37.335392,13.1497692 37.8239635,13.7816923 C38.0680537,14.109 38.3899867,14.839 38.7897626,15.9720769 C38.9227605,16.3424615 39.4437991,17.4647692 40.3544432,19.3386154 C41.0421204,20.7770769 41.4418963,22.0628462 41.5529886,23.1959231 C41.597582,23.6536154 41.6194875,24.1659231 41.6194875,24.7320769" id="Fill-6" fill="#F26E45"></path>
                <g id="Group-10" transform="translate(14.473296, 0.283962)">
                    <mask id="mask-4" fill="white">
                        <use xlink:href="#path-3"></use>
                    </mask>
                    <g id="Clip-9"></g>
                    <path d="M5.10864312,0.742769231 C5.07148195,0.577384615 4.98972739,0.436230769 4.86220592,0.335846154 C4.73507562,0.235461538 4.57743404,0.187769231 4.40531918,0.187384615 L0.704849503,0.100461538 C0.704849503,0.100461538 0.376266573,0.157769231 0.366487319,0.417 C0.366487319,0.417 0.308985306,0.658538462 0.616836218,0.762769231 L3.38358273,1.22930769 C3.58386185,1.25892308 3.77514406,1.337 3.93865318,1.46661538 C4.10333582,1.59623077 4.22225154,1.76315385 4.29500919,1.94930769 L5.31126926,4.43892308 C5.31126926,4.43892308 5.43487903,4.69969231 5.76072377,4.66469231 C5.76072377,4.66469231 6.08148329,4.592 5.98017022,4.23507692 L5.10864312,0.742769231 Z" id="Fill-8" fill="#05AEA4" mask="url(#mask-4)"></path>
                </g>
                <path d="M19.0020682,5.72796154 C19.0110652,5.81834615 19.0443146,5.89911538 19.104946,5.96103846 C19.1655774,6.02296154 19.2461584,6.05873077 19.3380834,6.07065385 L21.3005841,6.36565385 C21.3005841,6.36565385 21.4785665,6.35719231 21.502819,6.21988462 C21.502819,6.21988462 21.5497595,6.09526923 21.3932914,6.01911538 L19.9537852,5.58488462 C19.849734,5.55603846 19.7531149,5.50180769 19.6748809,5.42142308 C19.5966469,5.34103846 19.5446212,5.24488462 19.5195864,5.14103846 L19.1514952,3.74834615 C19.1514952,3.74834615 19.1037725,3.60065385 18.9277459,3.59757692 C18.9277459,3.59757692 18.7521105,3.61488462 18.7814483,3.81180769 L19.0020682,5.72796154 Z" id="Fill-11" fill="#F26E45"></path>
                <path d="M28.0530806,7.49788462 C28.3245527,7.54826923 28.5882014,7.51980769 28.8201653,7.40057692 C29.0509557,7.28096154 29.2222882,7.0825 29.3325982,6.83365385 L31.8204404,1.53480769 C31.8204404,1.53480769 31.9432678,1.02288462 31.5618769,0.8425 C31.5618769,0.8425 31.2352499,0.605961538 30.8847614,0.984423077 L28.4235188,4.69019231 C28.2529686,4.96096154 28.0143548,5.18826923 27.715892,5.34403846 C27.4166468,5.49942308 27.0915844,5.56480769 26.7661308,5.55211538 L22.3932397,5.43634615 C22.3932397,5.43634615 21.9230531,5.45057692 21.7685409,5.94326923 C21.7685409,5.94326923 21.6723131,6.45326923 22.2711946,6.53480769 L28.0530806,7.49788462 Z" id="Fill-13" fill="#05AEA4"></path>
                <path d="M20.7625686,4.51865385 C20.7985563,4.68980769 20.8803109,4.8375 21.0090058,4.94403846 C21.1388743,5.04903846 21.3004276,5.10134615 21.47841,5.10519231 L25.2974043,5.26442308 C25.2974043,5.26442308 25.6373311,5.21057692 25.6529779,4.94326923 C25.6529779,4.94326923 25.7171298,4.69442308 25.4014555,4.58134615 L22.554128,4.04788462 C22.3483725,4.01403846 22.152005,3.92980769 21.9845842,3.79365385 C21.8171634,3.65634615 21.6982477,3.4825 21.62549,3.28826923 L20.6252679,0.699038462 C20.6252679,0.699038462 20.501267,0.426730769 20.1648606,0.457115385 C20.1648606,0.457115385 19.8319748,0.525576923 19.9293762,0.896730769 L20.7625686,4.51865385 Z" id="Fill-15" fill="#F26E45"></path>
                <path d="M25.967909,1.24076923 C25.9299655,1.07038462 25.8462551,0.923076923 25.7171689,0.817692308 C25.5861269,0.713846154 25.4237913,0.663076923 25.2458089,0.660769231 L21.4256412,0.534230769 C21.4256412,0.534230769 21.0861055,0.590769231 21.0731969,0.857692308 C21.0731969,0.857692308 21.011392,1.10769231 21.3278486,1.21807692 L24.1798702,1.72692308 C24.3864081,1.75923077 24.5835578,1.84153846 24.7513698,1.97653846 C24.9203553,2.11269231 25.0412269,2.28576923 25.1151581,2.47884615 L26.1384592,5.05961538 C26.1384592,5.05961538 26.2640248,5.33038462 26.60004,5.29769231 C26.60004,5.29769231 26.9325346,5.22576923 26.8320039,4.85576923 L25.967909,1.24076923 Z" id="Fill-17" fill="#F26E45"></path>
                <path d="M34.5798329,1.37476923 C34.7898913,1.11130769 35.0578429,0.926307692 35.3703878,0.850923077 C35.6837151,0.778230769 36.0068217,0.824 36.3146726,0.965923077 L43.0032911,3.87784615 C43.0032911,3.87784615 43.54115,4.254 43.3377415,4.72476923 C43.3377415,4.72476923 43.2317344,5.20592308 42.5937359,5.13630769 L37.2476134,3.67630769 C36.8654402,3.56323077 36.4562762,3.54361538 36.0518062,3.63823077 C35.6465539,3.73361538 35.2909803,3.93323077 35.0003408,4.20553846 L31.0495223,7.81284615 C31.0495223,7.81284615 30.6031971,8.17669231 30.0520384,7.84476923 C30.0520384,7.84476923 29.5403878,7.44976923 30.0270035,6.89438462 L34.5798329,1.37476923 Z" id="Fill-19" fill="#F26E45"></path>
                <path d="M46.4502434,7.54746154 C46.9075213,7.54976923 47.3280292,7.67669231 47.6663914,7.94207692 C48.0043624,8.20861538 48.2206795,8.58361538 48.3212102,9.02284615 L50.9260123,19.4243846 C50.9260123,19.4243846 50.9627823,20.2963077 50.2868402,20.4716923 C50.2868402,20.4716923 49.6805265,20.7574615 49.2283338,20.0332308 L46.1615598,12.2324615 C45.9683217,11.739 45.6526474,11.2959231 45.2168839,10.9509231 C44.7791645,10.6063077 44.2702521,10.3997692 43.7363048,10.3205385 L36.582585,9.16669231 C36.582585,9.16669231 35.8205855,9.00015385 35.72514,8.15092308 C35.72514,8.15092308 35.7310076,7.29053846 36.7316208,7.34092308 L46.4502434,7.54746154 Z" id="Fill-21" fill="#05AEA4"></path>
                <path d="M36.6123531,4.51573077 C36.7473068,4.35342308 36.9170746,4.24111538 37.1138332,4.19842308 C37.310983,4.1565 37.5120444,4.18957692 37.7033266,4.28226923 L41.8497303,6.19111538 C41.8497303,6.19111538 42.1810514,6.43342308 42.0476624,6.72496154 C42.0476624,6.72496154 41.9752959,7.02419231 41.5763023,6.97303846 L38.2509648,5.99073077 C38.0135246,5.91496154 37.7580904,5.89726923 37.5030475,5.95111538 C37.2487869,6.00534615 37.0230817,6.12611538 36.8376671,6.29265385 L34.3173578,8.49919231 C34.3173578,8.49919231 34.0333682,8.72111538 33.6930502,8.50611538 C33.6930502,8.50611538 33.3781582,8.25226923 33.6899208,7.91111538 L36.6123531,4.51573077 Z" id="Fill-23" fill="#F26E45"></path>
                <path d="M26.7443818,2.41996154 C26.7197381,2.30111538 26.7306908,2.18573077 26.7834988,2.08380769 C26.8366979,1.98188462 26.9251024,1.90573077 27.0365859,1.85573077 L29.420768,0.733038462 C29.420768,0.733038462 29.6511672,0.676115385 29.7352688,0.8415 C29.7352688,0.8415 29.8451876,0.983038462 29.6762021,1.13880769 L28.0133378,2.23996154 C27.892075,2.31688462 27.7907619,2.42265385 27.7215248,2.55380769 C27.65307,2.68611538 27.6260793,2.82842308 27.6335115,2.9715 L27.7137014,4.88496154 C27.7137014,4.88496154 27.7105721,5.09073077 27.4883874,5.16111538 C27.4883874,5.16111538 27.2579882,5.2065 27.2173065,4.94534615 L26.7443818,2.41996154 Z" id="Fill-25" fill="#F26E45"></path>
                <path d="M50.4964292,28.8826923 C50.640771,28.9526923 50.7538192,29.0561538 50.8195358,29.1923077 C50.8836877,29.3265385 50.8938581,29.4780769 50.8570881,29.6319231 L50.134988,32.9584615 C50.134988,32.9584615 50.0098135,33.2396154 49.7692439,33.1926923 C49.7692439,33.1926923 49.5318036,33.1915385 49.5024658,32.8938462 L49.6718425,30.32 C49.6874893,30.1342308 49.6577604,29.9476923 49.5736588,29.7719231 C49.4891661,29.5965385 49.3608623,29.4546154 49.2043942,29.3488462 L47.1229778,27.9003846 C47.1229778,27.9003846 46.9090077,27.7323077 47.0126678,27.4496154 C47.0126678,27.4496154 47.1484039,27.1784615 47.4570371,27.3461538 L50.4964292,28.8826923 Z" id="Fill-27" fill="#F26E45"></path>
                <path d="M49.049569,25.4638077 C48.9263504,25.5680385 48.7831822,25.6307308 48.6294523,25.6372692 C48.4753313,25.6438077 48.3282513,25.5934231 48.1972093,25.4988077 L45.3291497,23.5257308 C45.3291497,23.5257308 45.1120503,23.3007308 45.251698,23.0984231 C45.251698,23.0984231 45.3463612,22.8822692 45.6389565,22.9722692 L48.0133593,24.1411154 C48.1823448,24.2291923 48.3720623,24.2749615 48.5711679,24.2672692 C48.7702736,24.2599615 48.9556882,24.1980385 49.1176326,24.0961154 L51.3109237,22.7607308 C51.3109237,22.7607308 51.5546227,22.6299615 51.7822837,22.8353462 C51.7822837,22.8353462 51.9845187,23.0672692 51.7044409,23.2845769 L49.049569,25.4638077 Z" id="Fill-29" fill="#F26E45"></path>
                <path d="M46.480872,14.8967692 C46.6842805,14.9221538 46.8630452,15.0017692 46.9995636,15.1371538 C47.133735,15.2736923 47.209622,15.4517692 47.2295717,15.6513846 L47.7603896,19.9448462 C47.7603896,19.9448462 47.7287048,20.3336923 47.4185068,20.3752308 C47.4185068,20.3752308 47.1333438,20.4698462 46.9733552,20.1240769 L46.0940047,16.9606154 C46.0353292,16.731 45.9195428,16.5175385 45.7454721,16.341 C45.570619,16.1648462 45.3558666,16.046 45.1235115,15.9821538 L42.0129265,15.0871538 C42.0129265,15.0871538 41.6835612,14.9725385 41.6886464,14.5902308 C41.6886464,14.5902308 41.738325,14.2086923 42.1799561,14.2848462 L46.480872,14.8967692 Z" id="Fill-31" fill="#F26E45"></path>
                <path d="M42.0357317,13.7785 C41.8769166,13.8200385 41.7184927,13.8146538 41.5761067,13.7538846 C41.4333296,13.6919615 41.3222373,13.5815769 41.245568,13.4385 L39.5298957,10.3954231 C39.5298957,10.3954231 39.4332766,10.0961923 39.6515496,9.97234615 C39.6515496,9.97234615 39.8357907,9.81773077 40.0614959,10.0277308 L41.6899373,12.1250385 C41.804159,12.2785 41.9567153,12.4027308 42.1401741,12.4827308 C42.3251976,12.5623462 42.521565,12.5877308 42.7148031,12.5658077 L45.3094347,12.3081154 C45.3094347,12.3081154 45.5899037,12.2958077 45.7041254,12.5823462 C45.7041254,12.5823462 45.7839241,12.8819615 45.4310886,12.9561923 L42.0357317,13.7785 Z" id="Fill-33" fill="#F26E45"></path>
                <path d="M44.1692519,1.73842308 C44.3687487,1.77111538 44.5424283,1.85573077 44.6703409,1.99457692 C44.7978624,2.13419231 44.8651437,2.31226923 44.8768788,2.51034615 L45.2293231,6.75803846 C45.2293231,6.75803846 45.183165,7.13957692 44.8757052,7.16880769 C44.8757052,7.16880769 44.5917157,7.25034615 44.4473739,6.90419231 L43.7064977,3.75573077 C43.6576014,3.52726923 43.5527678,3.31265385 43.3873028,3.13265385 C43.222229,2.95188462 43.0164735,2.8265 42.789986,2.75496154 L39.7615466,1.75496154 C39.7615466,1.75496154 39.442743,1.62919231 39.4623015,1.25303846 C39.4623015,1.25303846 39.5268445,0.879192308 39.9586964,0.971115385 L44.1692519,1.73842308 Z" id="Fill-35" fill="#F26E45"></path>
                <path d="M45.4105913,22.5471538 C45.1492897,22.5671538 44.904026,22.5144615 44.6978793,22.3790769 C44.4936885,22.2436923 44.352476,22.0398462 44.2746332,21.7952308 L42.4752505,16.5606154 C42.4752505,16.5606154 42.4126632,16.0667692 42.7889689,15.9344615 C42.7889689,15.9344615 43.1210724,15.7440769 43.412103,16.1356154 L45.3487864,19.8671538 C45.483349,20.1390769 45.6836281,20.3771538 45.9484503,20.5529231 C46.2140548,20.7286923 46.5129088,20.8229231 46.8219332,20.8429231 L50.9491696,21.1667692 C50.9491696,21.1667692 51.3904095,21.226 51.4854638,21.7056154 C51.4854638,21.7056154 51.5234073,22.1956154 50.9519077,22.2129231 L45.4105913,22.5471538 Z" id="Fill-37" fill="#05AEA4"></path>
                <path d="M52.9542295,27.9303462 C52.9514913,27.6891923 52.8806895,27.4684231 52.7359566,27.2915 C52.5892678,27.1149615 52.385077,27.0018846 52.146072,26.9507308 L47.0334781,25.7345769 C47.0334781,25.7345769 46.5605533,25.7176538 46.4658902,26.0734231 C46.4658902,26.0734231 46.3125515,26.3938077 46.7080245,26.6284231 L50.4073207,28.0953462 C50.6756634,28.1965 50.9177977,28.3607308 51.1071241,28.5884231 C51.2956681,28.8176538 51.4094986,29.0841923 51.4544832,29.3645769 L52.1034344,33.1218846 C52.1034344,33.1218846 52.1961418,33.5222692 52.6585049,33.5699615 C52.6585049,33.5699615 53.1263444,33.5641923 53.0962243,33.0388077 L52.9542295,27.9303462 Z" id="Fill-39" fill="#05AEA4"></path>
                <path d="M14.2149279,5.15284615 C14.0631539,5.13053846 13.9309383,5.06823077 13.8323635,4.96284615 C13.7333974,4.85784615 13.6821541,4.72284615 13.670419,4.57284615 L13.3719562,1.34669231 C13.3719562,1.34669231 13.4048145,1.05630769 13.6387342,1.03207692 C13.6387342,1.03207692 13.8534866,0.968615385 13.9649701,1.23053846 L14.5513342,3.61784615 C14.5888865,3.79092308 14.6718146,3.95323077 14.7989449,4.089 C14.9249017,4.22553846 15.0833256,4.31976923 15.2546581,4.37130769 L17.5649091,5.11053846 C17.5649091,5.11053846 17.8078258,5.20323077 17.7960906,5.489 C17.7960906,5.489 17.7487591,5.77476923 17.4205673,5.70784615 L14.2149279,5.15284615 Z" id="Fill-41" fill="#F26E45"></path>
                <path d="M17.8565264,1.86669231 C18.0028241,1.89053846 18.1303455,1.95246154 18.2238352,2.05515385 C18.3165425,2.15861538 18.3650476,2.28861538 18.3736534,2.434 L18.6181347,5.55323077 C18.6181347,5.55323077 18.5833206,5.83246154 18.3576154,5.85284615 C18.3576154,5.85284615 18.1483394,5.91169231 18.0450705,5.65707692 L17.5115144,3.34438462 C17.4759179,3.17669231 17.3996397,3.019 17.2791593,2.88592308 C17.1578965,2.75323077 17.0061225,2.66015385 16.8414399,2.60823077 L14.6215492,1.864 C14.6215492,1.864 14.3884118,1.77169231 14.4040586,1.49515385 C14.4040586,1.49515385 14.4529549,1.22092308 14.7690204,1.28938462 L17.8565264,1.86669231 Z" id="Fill-43" fill="#F26E45"></path>
                <path d="M45.299851,1.90473077 L45.7148826,6.81857692 C45.7148826,6.81857692 47.3222008,6.50473077 47.9770196,7.55242308 C47.9770196,7.55242308 47.3413681,3.16011538 45.299851,1.90473077" id="Fill-45" fill="#D3B593"></path>
                <g id="Group-49" transform="translate(52.807971, 28.360885)">
                    <mask id="mask-6" fill="white">
                        <use xlink:href="#path-5"></use>
                    </mask>
                    <g id="Clip-48"></g>
                    <path d="M0.553271068,4.71088462 L0.364727053,0.0916538462 L0.921362185,2.31819231 C0.921362185,2.31819231 1.40523967,3.79319231 0.553271068,4.71088462" id="Fill-47" fill="#C7E3BC" mask="url(#mask-6)"></path>
                </g>
                <path d="M47.378099,28.5691538 L48.6681781,31.7745385 C48.6681781,31.7745385 48.9271328,32.4360769 49.1168503,32.5910769 L49.348423,30.5241538 C49.348423,30.5241538 49.4661653,29.8676154 48.9991081,29.6383846 L47.378099,28.5691538 Z" id="Fill-50" fill="#C7E3BC"></path>
                <path d="M50.3833028,33.5710769 C50.3833028,33.5710769 51.1011,33.9218462 51.8591878,33.8322308 L51.3174171,30.0672308 C51.3174171,30.0672308 51.2833853,29.9064615 51.169946,29.913 C51.169946,29.913 51.0213013,29.8733846 50.9919636,30.0749231 L50.3833028,33.5710769 Z" id="Fill-52" fill="#D3B593"></path>
                <path d="M51.9279946,23.5182308 L52.7208965,26.6882308 L49.6095291,26.0578462 C49.6095291,26.0578462 49.0419412,25.8859231 49.5383362,25.5013077 L51.9279946,23.5182308 Z" id="Fill-54" fill="#C7E3BC"></path>
                <path d="M21.4337384,1.65634615 L21.9774649,3.14326923 C21.9774649,3.14326923 22.228205,3.75442308 22.9980278,3.85980769 L25.329402,4.19326923 L24.7348233,2.7875 C24.7348233,2.7875 24.6041725,2.20480769 24.0068557,2.06480769 L21.4337384,1.65634615 Z" id="Fill-56" fill="#D3B593"></path>
                <path d="M26.0827566,0.637923077 L28.9058316,0.688307692 L27.0325177,1.54023077 C27.0325177,1.54023077 26.5376875,1.74446154 26.5674164,2.07523077 L26.0827566,0.637923077 Z" id="Fill-58" fill="#D3B593"></path>
                <polygon id="Fill-60" fill="#C7E3BC" points="30.5317695 5.47557692 32.3370197 0.782115385 34.3116467 0.825576923"></polygon>
                <path d="M13.4610647,4.72115385 L13.1140968,1.40769231 C13.1140968,1.40769231 12.521474,2.04076923 12.5774114,3.09653846 C12.6055756,3.62269231 12.8211104,4.20115385 13.4610647,4.72115385" id="Fill-62" fill="#D3B593"></path>
                <path d="M14.5035332,2.21073077 L14.8540217,3.56880769 C14.8540217,3.56880769 14.9381233,3.89573077 15.3777985,4.10073077 L17.4369182,4.71303846 L17.1454964,3.47957692 C17.1454964,3.47957692 17.0011547,3.00265385 16.5528737,2.88726923 L14.5035332,2.21073077 Z" id="Fill-64" fill="#C7E3BC"></path>
                <path d="M31.4036486,8.08161538 L32.4703696,8.26161538 L35.406884,4.85584615 C35.406884,4.85584615 35.5281467,4.68161538 35.3779374,4.57046154 C35.32865,4.53353846 35.2066049,4.50815385 35.07126,4.60623077 L31.4036486,8.08161538 Z" id="Fill-66" fill="#D3B593"></path>
                <path d="M41.0675855,10.4490385 L41.9371568,11.5744231 C41.9371568,11.5744231 42.2266227,12.0940385 42.9006089,12.0817308 L44.9378231,11.8663462 C44.9378231,11.8663462 44.6866918,11.1151923 43.7686155,10.9363462 L41.0675855,10.4490385 Z" id="Fill-68" fill="#D3B593"></path>
                <path d="M43.850018,16.1745769 L45.6779561,19.6376538 C45.6779561,19.6376538 46.0280534,20.3072692 46.5698241,20.2580385 C46.4575582,19.9295769 46.3460747,19.6015 46.2330266,19.2734231 C46.0366592,18.7007308 45.8520268,18.1222692 45.6419685,17.5541923 C45.4964532,17.1591923 45.4115692,16.7861154 45.0599073,16.5157308 C44.7051159,16.2434231 44.3049489,16.1076538 43.850018,16.1745769" id="Fill-70" fill="#D3B593"></path>
                <path d="M46.4041635,22.922 L50.7543668,22.6646923 L49.1141904,23.6827692 C49.1141904,23.6827692 48.6385274,23.9916154 48.0709395,23.7193077 L46.4041635,22.922 Z" id="Fill-72" fill="#D3B593"></path>
                <path d="M43.4596693,14.1291154 L46.5264433,14.5402692 L45.9091768,13.1891154 L43.3599209,13.7571923 C43.3599209,13.7571923 43.0614581,13.9725769 43.4596693,14.1291154" id="Fill-74" fill="#C7E3BC"></path>
            </g>
        </g>
    </g>
</svg>