<?xml version="1.0" encoding="UTF-8" standalone="no"?>
<svg width="164px" height="299px" viewBox="0 0 164 299" version="1.1" xmlns="http://www.w3.org/2000/svg" xmlns:xlink="http://www.w3.org/1999/xlink">
    <!-- Generator: Sketch 3.8.3 (29802) - http://www.bohemiancoding.com/sketch -->
    <title>logo-eco-home</title>
    <desc>Created with Sketch.</desc>
    <defs>
        <filter x="-50%" y="-50%" width="200%" height="200%" filterUnits="objectBoundingBox" id="filter-1">
            <feOffset dx="0" dy="2" in="SourceAlpha" result="shadowOffsetOuter1"></feOffset>
            <feGaussianBlur stdDeviation="1.5" in="shadowOffsetOuter1" result="shadowBlurOuter1"></feGaussianBlur>
            <feColorMatrix values="0 0 0 0 0   0 0 0 0 0   0 0 0 0 0  0 0 0 0.529438406 0" type="matrix" in="shadowBlurOuter1" result="shadowMatrixOuter1"></feColorMatrix>
            <feMerge>
                <feMergeNode in="shadowMatrixOuter1"></feMergeNode>
                <feMergeNode in="SourceGraphic"></feMergeNode>
            </feMerge>
        </filter>
        <polygon id="path-2" points="2.6598517e-20 0.628173958 2.6598517e-20 12.6037804 9.55381367 12.6037804 9.55381367 0.628173958 0 0.628173958"></polygon>
        <polygon id="path-4" points="0.371132225 17.5610775 11.1243499 17.5610775 11.1243499 0.435904967 0.371132225 0.435904967 0.371132225 17.5610775"></polygon>
        <polygon id="path-6" points="0.784657132 17.5610775 15.5985442 17.5610775 15.5985442 0.435514721 0.784657132 0.435514721"></polygon>
        <polygon id="path-8" points="0.2584776 17.5610775 11.3080515 17.5610775 11.3080515 0.435514721 0.2584776 0.435514721"></polygon>
        <polygon id="path-10" points="0.082430214 17.5610775 11.8928905 17.5610775 11.8928905 0.435514721 0.082430214 0.435514721"></polygon>
        <polygon id="path-12" points="0.516889321 17.5610775 11.270107 17.5610775 11.270107 0.435904967 0.516889321 0.435904967 0.516889321 17.5610775"></polygon>
        <polygon id="path-14" points="0.907656486 17.5610775 14.5501471 17.5610775 14.5501471 0.459565007 0.907656486 0.459565007 0.907656486 17.5610775"></polygon>
        <polygon id="path-16" points="0.246047189 17.5610775 12.0565075 17.5610775 12.0565075 0.435514721 0.246047189 0.435514721"></polygon>
        <polygon id="path-18" points="0.00130795861 17.5610775 2.73328077 17.5610775 2.73328077 0.435514721 0.00130795861 0.435514721 0.00130795861 17.5610775"></polygon>
        <polygon id="path-20" points="0.12579799 17.5610775 13.7692891 17.5610775 13.7692891 0.459565007 0.12579799 0.459565007"></polygon>
        <polygon id="path-22" points="0.760450977 17.5610775 11.5136687 17.5610775 11.5136687 0.435904967 0.760450977 0.435904967"></polygon>
        <polygon id="path-24" points="110.647067 0.524560742 0.866326323 0.524560742 0.866326323 77.4407123 110.647067 77.4407123 110.647067 0.524560742"></polygon>
    </defs>
    <g id="Welcome" stroke="none" stroke-width="1" fill="none" fill-rule="evenodd">
        <g id="Desktop-HD" transform="translate(-320.000000, -202.000000)">
            <g id="logo-eco-home" filter="url(#filter-1)" transform="translate(323.000000, 202.000000)">
                <g id="Group-3" transform="translate(0.000000, 256.775803)">
                    <mask id="mask-3" fill="white">
                        <use xlink:href="#path-2"></use>
                    </mask>
                    <g id="Clip-2"></g>
                    <path d="M6.17186414,7.89155797 L4.77643838,4.20763416 L3.38101261,7.89155797 L6.17186414,7.89155797 Z M6.87840883,9.77644695 L2.69213154,9.77644695 L1.84820316,12.0047526 C1.69119322,12.3793889 1.33007038,12.6037804 0.951283922,12.6037804 C0.831563849,12.6037804 0.72754477,12.5862193 0.62352569,12.5510972 C0.125019158,12.363779 -0.116383612,11.8154832 0.0543646888,11.3179193 L3.86381815,1.22810468 C4.01886546,0.851517134 4.39765192,0.611515742 4.77643838,0.62907682 C5.17288845,0.611515742 5.5340113,0.851517134 5.6890586,1.22810468 L9.49851207,11.3179193 C9.67122299,11.8154832 9.4278576,12.363779 8.92935106,12.5510972 C8.8429956,12.5862193 8.72327553,12.6037804 8.60159283,12.6037804 C8.22280637,12.6037804 7.85972091,12.3793889 7.72233722,12.0047526 L6.87840883,9.77644695 Z" id="Fill-1" fill="#0E9493" mask="url(#mask-3)"></path>
                </g>
                <path d="M10.1687482,263.211938 C10.1864118,259.820699 13.0459552,257.061658 16.4923232,257.044097 C18.0094317,257.044097 19.3871938,257.541661 20.472525,258.380691 C20.8866387,258.724107 20.9553305,259.323135 20.6452359,259.750455 C20.299814,260.179725 19.6619612,260.248018 19.2655111,259.939724 C18.5079382,259.323135 17.5599907,258.997279 16.4923232,258.997279 C15.302973,258.997279 14.1999782,259.477282 13.3913771,260.230457 C12.6161405,261.018755 12.133335,262.047053 12.133335,263.211938 C12.133335,264.376823 12.6161405,265.438292 13.3913771,266.193419 C14.1999782,266.946594 15.302973,267.426597 16.4923232,267.426597 C17.5599907,267.426597 18.4922372,267.100741 19.2655111,266.484152 C19.6619612,266.193419 20.299814,266.261712 20.6452359,266.673422 C20.9553305,267.100741 20.8866387,267.71733 20.472525,268.043186 C19.3871938,268.882215 18.0094317,269.379779 16.4923232,269.379779 C13.0459552,269.379779 10.1864118,266.620738 10.1687482,263.211938" id="Fill-4" fill="#0E9493"></path>
                <path d="M32.4649435,263.211938 C32.4649435,262.047053 31.9998016,260.968023 31.2932569,260.214847 C30.5690486,259.44216 29.6034375,258.997279 28.5710972,258.997279 C27.4681025,258.997279 26.5024914,259.44216 25.7782831,260.214847 C25.0560374,260.968023 24.6065965,262.047053 24.6065965,263.211938 C24.6065965,264.376823 25.0560374,265.455854 25.7782831,266.193419 C26.5024914,266.964155 27.4681025,267.426597 28.5710972,267.426597 C29.6034375,267.426597 30.5690486,266.964155 31.2932569,266.193419 C31.9998016,265.455854 32.4649435,264.376823 32.4649435,263.211938 M32.6886827,258.878254 C33.7563502,260.008017 34.4295303,261.516318 34.4295303,263.211938 C34.4295303,264.907558 33.7563502,266.431469 32.6886827,267.545622 C31.6720434,268.659775 30.1549349,269.379779 28.5710972,269.379779 C26.9166051,269.379779 25.3994966,268.659775 24.3494927,267.545622 C23.2798625,266.431469 22.6439723,264.907558 22.6439723,263.211938 C22.6439723,261.516318 23.2798625,260.008017 24.3494927,258.878254 C25.3994966,257.74654 26.9166051,257.044097 28.5710972,257.044097 C30.1549349,257.044097 31.6720434,257.74654 32.6886827,258.878254" id="Fill-6" fill="#0E9493"></path>
                <path d="M47.0407642,258.329373 L47.0407642,268.436749 C47.0407642,268.951874 46.5932859,269.379193 46.0751532,269.379193 C45.5413194,269.379193 45.1272057,268.951874 45.1272057,268.436749 L45.1272057,261.225 L42.6464488,264.651361 C42.4580369,264.906972 42.1813069,265.04551 41.8712123,265.04551 L41.8535486,265.04551 L41.8378476,265.04551 C41.527753,265.04551 41.2333594,264.906972 41.0449475,264.651361 L38.5798916,261.225 L38.5798916,268.436749 C38.5798916,268.951874 38.1500769,269.379193 37.6142805,269.379193 C37.0981103,269.379193 36.6682957,268.951874 36.6682957,268.436749 L36.6682957,258.329373 C36.6682957,257.816199 37.0981103,257.386929 37.6142805,257.386929 L37.6672713,257.386929 C37.9420387,257.386929 38.2521333,257.525466 38.4248443,257.781077 L41.8535486,262.50891 L45.282253,257.781077 C45.4726276,257.525466 45.7473949,257.386929 46.0594522,257.386929 L46.0751532,257.386929 C46.5932859,257.40449 47.0407642,257.816199 47.0407642,258.329373" id="Fill-8" fill="#0E9493"></path>
                <path d="M51.7944362,262.817985 L53.9140703,262.817985 C54.913046,262.817985 55.6882825,262.029687 55.7059461,261.071633 C55.6882825,260.076505 54.913046,259.288208 53.9140703,259.288208 L51.7944362,259.288208 L51.7944362,262.817985 Z M53.9140703,264.720435 L51.7944362,264.720435 L51.7944362,268.435578 C51.7944362,268.950703 51.3646215,269.379974 50.8288251,269.379974 C50.312655,269.379974 49.8828403,268.950703 49.8828403,268.435578 L49.8828403,258.330154 C49.8828403,257.799419 50.312655,257.387709 50.8288251,257.387709 L50.8464887,257.387709 L53.9140703,257.387709 C55.9650125,257.387709 57.6195046,259.030646 57.6195046,261.071633 C57.6195046,263.075547 55.9650125,264.720435 53.9140703,264.720435 L53.9140703,264.720435 Z" id="Fill-10" fill="#0E9493"></path>
                <path d="M63.700303,264.667361 L62.3048773,260.983437 L60.9094515,264.667361 L63.700303,264.667361 Z M64.4068477,266.55225 L60.2205704,266.55225 L59.3746794,268.780556 C59.2196321,269.155192 58.8585093,269.379584 58.4797228,269.379584 C58.3580401,269.379584 58.2559837,269.362023 58.1519646,269.3269 C57.6514954,269.139582 57.4100926,268.591286 57.5828036,268.093722 L61.392257,258.003908 C61.5473043,257.62732 61.9260908,257.387319 62.3048773,257.40488 C62.7013273,257.387319 63.0624502,257.62732 63.2174975,258.003908 L67.0249883,268.093722 C67.1976992,268.591286 66.9562965,269.139582 66.4577899,269.3269 C66.3714345,269.362023 66.2497518,269.379584 66.1300317,269.379584 C65.7512453,269.379584 65.3881598,269.155192 65.2507761,268.780556 L64.4068477,266.55225 Z" id="Fill-12" fill="#0E9493"></path>
                <path d="M70.9883115,255.965847 C70.6428897,255.965847 70.3504587,255.690724 70.3504587,255.39999 C70.3504587,255.296575 70.3838233,255.124867 70.4191505,255.005842 C70.782236,254.012665 71.2630789,253.446808 72.1776617,253.446808 C73.1256092,253.446808 74.0382294,254.133641 74.6584187,254.133641 C75.0548687,254.133641 75.2432807,253.959982 75.4513188,253.585346 C75.5710389,253.396076 75.7614134,253.241929 76.0185172,253.241929 C76.363939,253.241929 76.65637,253.515101 76.65637,253.807786 C76.65637,253.911201 76.6230054,254.080958 76.5876782,254.201935 C76.2265554,255.195111 75.7437498,255.759017 74.8311296,255.759017 C73.8831821,255.759017 72.9685993,255.074135 72.3484101,255.074135 C71.9539226,255.074135 71.7635481,255.245843 71.5574725,255.622431 C71.4357898,255.8117 71.2630789,255.965847 70.9883115,255.965847 L70.9883115,255.965847 Z M70.8156006,268.436163 C70.8156006,268.951288 70.3838233,269.380559 69.8853168,269.380559 C69.351483,269.380559 68.9373693,268.951288 68.9373693,268.436163 L68.9373693,258.484886 L68.9373693,258.467325 C68.9197057,258.176592 69.0570894,257.866346 69.3161557,257.679028 C69.7479331,257.388295 70.3327951,257.472197 70.6271887,257.883907 L76.1912281,265.542488 L76.1912281,258.484886 C76.1912281,257.987322 76.6053418,257.560003 77.121512,257.560003 C77.6396447,257.560003 78.0694594,257.987322 78.0694594,258.484886 L78.0694594,268.436163 C78.0694594,268.951288 77.6396447,269.380559 77.121512,269.380559 C76.8467446,269.380559 76.5876782,269.242022 76.4169299,269.037143 C76.3816027,269.00202 76.3462754,268.968849 76.3305744,268.933727 L70.8156006,261.32783 L70.8156006,268.436163 Z" id="Fill-14" fill="#0E9493"></path>
                <path d="M87.5110554,264.667361 L86.1156296,260.983437 L84.7202039,264.667361 L87.5110554,264.667361 Z M88.2176001,266.55225 L84.0313228,266.55225 L83.1854318,268.780556 C83.0303845,269.155192 82.6692616,269.379584 82.2904752,269.379584 C82.1687925,269.379584 82.066736,269.362023 81.9627169,269.3269 C81.4622478,269.139582 81.220845,268.591286 81.3935559,268.093722 L85.2030094,258.003908 C85.3580567,257.62732 85.7368432,257.387319 86.1156296,257.40488 C86.5120797,257.387319 86.8732025,257.62732 87.0282499,258.003908 L90.8377033,268.093722 C91.0084516,268.591286 90.7670488,269.139582 90.2685423,269.3269 C90.1821869,269.362023 90.0605042,269.379584 89.9407841,269.379584 C89.5619976,269.379584 89.1989122,269.155192 89.0615285,268.780556 L88.2176001,266.55225 Z" id="Fill-16" fill="#0E9493"></path>
                <path d="M103.104104,258.329373 L103.104104,268.436749 C103.104104,268.951874 102.656626,269.379193 102.138493,269.379193 C101.604659,269.379193 101.190546,268.951874 101.190546,268.436749 L101.190546,261.225 L98.7097888,264.651361 C98.5213768,264.906972 98.2446468,265.04551 97.9345522,265.04551 L97.9168886,265.04551 L97.9011876,265.04551 C97.591093,265.04551 97.2966994,264.906972 97.1082875,264.651361 L94.6432315,261.225 L94.6432315,268.436749 C94.6432315,268.951874 94.2134168,269.379193 93.6795831,269.379193 C93.1614503,269.379193 92.7316356,268.951874 92.7316356,268.436749 L92.7316356,258.329373 C92.7316356,257.816199 93.1614503,257.386929 93.6795831,257.386929 L93.7306113,257.386929 C94.0053787,257.386929 94.3154733,257.525466 94.4881842,257.781077 L97.9168886,262.50891 L101.347556,257.781077 C101.535968,257.525466 101.810735,257.386929 102.122792,257.386929 L102.138493,257.386929 C102.656626,257.40449 103.104104,257.816199 103.104104,258.329373" id="Fill-18" fill="#0E9493"></path>
                <path d="M106.927689,258.329373 C106.927689,257.798638 107.341802,257.386929 107.875636,257.386929 C108.391806,257.386929 108.839284,257.798638 108.839284,258.329373 L108.839284,268.436749 C108.839284,268.967484 108.391806,269.379193 107.875636,269.379193 C107.341802,269.379193 106.927689,268.967484 106.927689,268.436749 L106.927689,258.329373 Z" id="Fill-20" fill="#0E9493"></path>
                <path d="M111.596575,268.436163 L111.596575,258.328788 C111.596575,257.798053 112.010689,257.388295 112.544523,257.388295 L112.562186,257.388295 L112.595551,257.388295 L118.179217,257.388295 C118.677723,257.388295 119.127164,257.798053 119.127164,258.328788 C119.127164,258.861474 118.677723,259.288793 118.179217,259.288793 L113.508171,259.288793 L113.508171,262.424421 L117.5237,262.424421 C118.03987,262.424421 118.471648,262.869302 118.471648,263.364915 C118.471648,263.897601 118.03987,264.32492 117.5237,264.32492 L113.508171,264.32492 L113.508171,267.478109 L118.179217,267.478109 C118.677723,267.478109 119.127164,267.905429 119.127164,268.436163 C119.127164,268.951288 118.677723,269.378608 118.179217,269.378608 L112.595551,269.378608 C112.562186,269.378608 112.562186,269.361047 112.562186,269.361047 L112.544523,269.378608 C112.010689,269.378608 111.596575,268.951288 111.596575,268.436163" id="Fill-22" fill="#0E9493"></path>
                <path d="M123.243572,268.436163 C123.243572,268.951288 122.811795,269.378608 122.313288,269.378608 C121.779454,269.378608 121.365341,268.951288 121.365341,268.436163 L121.365341,258.482935 L121.365341,258.467325 C121.347677,258.174641 121.485061,257.866346 121.744127,257.679028 C122.175904,257.388295 122.760766,257.472197 123.053197,257.883907 L128.619199,265.542488 L128.619199,258.482935 C128.619199,257.987322 129.033313,257.560003 129.549483,257.560003 C130.067616,257.560003 130.497431,257.987322 130.497431,258.482935 L130.497431,268.436163 C130.497431,268.951288 130.067616,269.378608 129.549483,269.378608 C129.274716,269.378608 129.015649,269.242022 128.842939,269.037143 C128.809574,269.00202 128.774247,268.968849 128.756583,268.933727 L123.243572,261.32783 L123.243572,268.436163 Z" id="Fill-24" fill="#0E9493"></path>
                <path d="M141.369387,259.288403 L138.629564,259.288403 L138.629564,268.435773 C138.629564,268.968459 138.21545,269.380169 137.681616,269.380169 C137.165446,269.380169 136.733669,268.968459 136.733669,268.435773 L136.733669,259.288403 L134.011509,259.288403 C133.477675,259.288403 133.063562,258.843522 133.063562,258.328398 C133.063562,257.797663 133.477675,257.387904 134.011509,257.387904 L141.369387,257.387904 C141.885557,257.387904 142.317335,257.797663 142.317335,258.328398 C142.317335,258.843522 141.885557,259.288403 141.369387,259.288403" id="Fill-26" fill="#0E9493"></path>
                <path d="M153.033655,263.211938 C153.033655,262.047053 152.568513,260.968023 151.861968,260.214847 C151.13776,259.44216 150.172149,258.997279 149.139809,258.997279 C148.036814,258.997279 147.071203,259.44216 146.346994,260.214847 C145.624749,260.968023 145.175308,262.047053 145.175308,263.211938 C145.175308,264.376823 145.624749,265.455854 146.346994,266.193419 C147.071203,266.964155 148.036814,267.426597 149.139809,267.426597 C150.172149,267.426597 151.13776,266.964155 151.861968,266.193419 C152.568513,265.455854 153.033655,264.376823 153.033655,263.211938 M153.257394,258.878254 C154.325062,260.008017 154.998242,261.516318 154.998242,263.211938 C154.998242,264.907558 154.325062,266.431469 153.257394,267.545622 C152.240755,268.659775 150.723646,269.379779 149.139809,269.379779 C147.485316,269.379779 145.968208,268.659775 144.918204,267.545622 C143.848574,266.431469 143.212684,264.907558 143.212684,263.211938 C143.212684,261.516318 143.848574,260.008017 144.918204,258.878254 C145.968208,257.74654 147.485316,257.044097 149.139809,257.044097 C150.723646,257.044097 152.240755,257.74654 153.257394,258.878254" id="Fill-28" fill="#0E9493"></path>
                <g id="Group-32" transform="translate(0.000000, 276.288111)">
                    <mask id="mask-5" fill="white">
                        <use xlink:href="#path-4"></use>
                    </mask>
                    <g id="Clip-31"></g>
                    <path d="M0.371132225,16.2155087 L0.371132225,1.78225424 C0.371132225,1.02322545 0.961882093,0.435904967 1.72534288,0.435904967 L1.74889437,0.435904967 L1.79795998,0.435904967 L9.77210187,0.435904967 C10.4845344,0.435904967 11.1243499,1.02322545 11.1243499,1.78225424 C11.1243499,2.5393318 10.4845344,3.15201828 9.77210187,3.15201828 L3.10310503,3.15201828 L3.10310503,7.62814181 L8.83593015,7.62814181 C9.57387683,7.62814181 10.1901408,8.26424306 10.1901408,8.97449108 C10.1901408,9.73351987 9.57387683,10.3442551 8.83593015,10.3442551 L3.10310503,10.3442551 L3.10310503,14.8457446 L9.77210187,14.8457446 C10.4845344,14.8457446 11.1243499,15.4584311 11.1243499,16.2155087 C11.1243499,16.9491715 10.4845344,17.561858 9.77210187,17.561858 L1.79795998,17.561858 C1.74889437,17.561858 1.74889437,17.536492 1.74889437,17.536492 L1.72534288,17.561858 C0.961882093,17.561858 0.371132225,16.9491715 0.371132225,16.2155087" id="Fill-30" fill="#0E9493" mask="url(#mask-5)"></path>
                </g>
                <g id="Group-35" transform="translate(13.738369, 276.288111)">
                    <mask id="mask-7" fill="white">
                        <use xlink:href="#path-6"></use>
                    </mask>
                    <g id="Clip-34"></g>
                    <path d="M15.5985442,1.78186399 L15.5985442,16.2151184 C15.5985442,16.9487812 14.9587287,17.5614677 14.220782,17.5614677 C13.4573212,17.5614677 12.868534,16.9487812 12.868534,16.2151184 L12.868534,5.91652212 L9.32403478,10.8082578 C9.05319265,11.1770404 8.65870519,11.3721635 8.21711476,11.3721635 L8.19160065,11.3721635 L8.16804916,11.3721635 C7.7244961,11.3721635 7.30645716,11.1770404 7.03561503,10.8082578 L3.51662994,5.91652212 L3.51662994,16.2151184 C3.51662994,16.9487812 2.90232858,17.5614677 2.13886779,17.5614677 C1.40092111,17.5614677 0.784657132,16.9487812 0.784657132,16.2151184 L0.784657132,1.78186399 C0.784657132,1.0482012 1.40092111,0.435514721 2.13886779,0.435514721 L2.21148488,0.435514721 C2.60597234,0.435514721 3.04952539,0.632589035 3.29485341,0.999420431 L8.19160065,7.7506791 L13.0883479,0.999420431 C13.35919,0.632589035 13.7536775,0.435514721 14.1972305,0.435514721 L14.220782,0.435514721 C14.9587287,0.460880722 15.5985442,1.0482012 15.5985442,1.78186399" id="Fill-33" fill="#0E9493" mask="url(#mask-7)"></path>
                </g>
                <g id="Group-38" transform="translate(33.364610, 276.288111)">
                    <mask id="mask-9" fill="white">
                        <use xlink:href="#path-8"></use>
                    </mask>
                    <g id="Clip-37"></g>
                    <path d="M2.99045041,8.19165727 L6.01681684,8.19165727 C7.44364459,8.19165727 8.5505646,7.06579708 8.57607872,5.69603304 C8.5505646,4.27748823 7.44364459,3.15162804 6.01681684,3.15162804 L2.99045041,3.15162804 L2.99045041,8.19165727 Z M6.01681684,10.9058194 L2.99045041,10.9058194 L2.99045041,16.2151184 C2.99045041,16.9487812 2.37614905,17.5614677 1.61268826,17.5614677 C0.874741581,17.5614677 0.2584776,16.9487812 0.2584776,16.2151184 L0.2584776,1.78186399 C0.2584776,1.0228352 0.874741581,0.435514721 1.61268826,0.435514721 L1.63623975,0.435514721 L6.01681684,0.435514721 C8.94505206,0.435514721 11.3080515,2.78479664 11.3080515,5.69603304 C11.3080515,8.55848867 8.94505206,10.9058194 6.01681684,10.9058194 L6.01681684,10.9058194 Z" id="Fill-36" fill="#0E9493" mask="url(#mask-9)"></path>
                </g>
                <g id="Group-41" transform="translate(47.102979, 276.288111)">
                    <mask id="mask-11" fill="white">
                        <use xlink:href="#path-10"></use>
                    </mask>
                    <g id="Clip-40"></g>
                    <path d="M8.37451722,5.69603304 C8.37451722,4.27748823 7.24208309,3.15162804 5.84076945,3.15162804 L2.8124404,3.15162804 L2.8124404,8.19165727 L5.84076945,8.19165727 C7.24208309,8.19165727 8.37451722,7.06579708 8.37451722,5.69603304 M11.8189226,15.5302364 C12.0662132,16.2404844 11.6717258,16.9995132 10.9592932,17.2434171 C10.8591994,17.2687831 10.662937,17.3156126 10.417609,17.3156126 L10.3920948,17.3156126 C10.1467668,17.3156126 9.77779348,17.2687831 9.43237163,17.048294 C9.1124639,16.8512197 8.84162176,16.5331691 8.64535935,16.1917037 C8.2999375,15.4834069 8.12722658,14.6014505 8.12722658,13.2551013 C8.10367509,12.7907083 8.00554388,12.4726577 7.83283296,12.2033879 C7.68563614,11.934118 7.39124252,11.6902141 7.09488628,11.4931398 C6.57871613,11.1516744 5.93890066,10.9565514 5.71712413,10.9058194 L2.8124404,10.9058194 L2.8124404,16.2151184 C2.8124404,16.9487812 2.19813904,17.5614677 1.43467825,17.5614677 C0.671217457,17.5614677 0.082430214,16.9487812 0.082430214,16.2151184 L0.082430214,1.78186399 C0.082430214,1.02478643 0.671217457,0.435514721 1.43467825,0.435514721 L1.46019236,0.435514721 L5.84076945,0.435514721 C8.76704205,0.435514721 11.10649,2.78479664 11.10649,5.69603304 C11.10649,7.31165217 10.3665807,8.73019698 9.18704361,9.70776362 C9.50695135,9.95361871 9.80134497,10.2463033 10.0486356,10.6131347 C10.5392916,11.3233828 10.8591994,12.2287539 10.8591994,13.2551013 C10.8356479,13.9887641 10.908265,14.4551082 10.9592932,14.6990121 C11.351818,14.8219396 11.6717258,15.1146243 11.8189226,15.5302364" id="Fill-39" fill="#0E9493" mask="url(#mask-11)"></path>
                </g>
                <g id="Group-44" transform="translate(61.953045, 276.288111)">
                    <mask id="mask-13" fill="white">
                        <use xlink:href="#path-12"></use>
                    </mask>
                    <g id="Clip-43"></g>
                    <path d="M0.516889321,16.2155087 L0.516889321,1.78225424 C0.516889321,1.02322545 1.10763919,0.435904967 1.87109998,0.435904967 L1.89465147,0.435904967 L1.94371707,0.435904967 L9.91589634,0.435904967 C10.6302915,0.435904967 11.270107,1.02322545 11.270107,1.78225424 C11.270107,2.5393318 10.6302915,3.15201828 9.91589634,3.15201828 L3.2468995,3.15201828 L3.2468995,7.62814181 L8.98168725,7.62814181 C9.71963393,7.62814181 10.3339353,8.26424306 10.3339353,8.97449108 C10.3339353,9.73351987 9.71963393,10.3442551 8.98168725,10.3442551 L3.2468995,10.3442551 L3.2468995,14.8457446 L9.91589634,14.8457446 C10.6302915,14.8457446 11.270107,15.4584311 11.270107,16.2155087 C11.270107,16.9491715 10.6302915,17.561858 9.91589634,17.561858 L1.94371707,17.561858 C1.89465147,17.561858 1.89465147,17.536492 1.89465147,17.536492 L1.87109998,17.561858 C1.10763919,17.561858 0.516889321,16.9491715 0.516889321,16.2155087" id="Fill-42" fill="#0E9493" mask="url(#mask-13)"></path>
                </g>
                <path d="M76.0801436,289.592579 C76.5236967,289.05599 77.336223,288.979892 77.8759447,289.422822 C78.9593132,290.302827 80.829694,291.329174 82.5764295,291.30576 C83.8069948,291.30576 84.9139149,290.938928 85.6518615,290.400388 C86.3898082,289.861849 86.709716,289.249162 86.709716,288.638427 C86.709716,288.320376 86.6370989,288.099887 86.4899021,287.855983 C86.3427052,287.61208 86.1209287,287.366224 85.7519554,287.122321 C85.0375602,286.655976 83.832509,286.240364 82.3801671,285.971094 L82.3311015,285.971094 C81.1751159,285.750605 80.0917473,285.457921 79.1575383,285.018894 C78.2213665,284.577916 77.4088401,283.965229 76.8671559,283.108639 C76.5001452,282.52327 76.3019201,281.836436 76.3019201,281.104725 C76.3019201,279.635448 77.137998,278.363245 78.2704321,277.532021 C79.4264178,276.700797 80.9278252,276.234453 82.5273639,276.234453 C84.8903634,276.234453 86.6370989,277.385679 87.8912157,278.191537 C88.4584141,278.583735 88.6291624,279.366178 88.2366375,279.928133 C87.8676642,280.515453 87.0806519,280.687161 86.4899021,280.294964 C85.2338226,279.46374 84.0287714,278.730077 82.5273639,278.730077 C81.4204439,278.730077 80.4371692,279.071542 79.7718396,279.561301 C79.10651,280.05106 78.8356679,280.5896 78.8356679,281.104725 C78.8356679,281.397409 78.8866961,281.592532 79.0083788,281.787656 C79.1320241,281.98473 79.3538007,282.203268 79.6737084,282.423757 C80.3135239,282.864735 81.4204439,283.256932 82.7491404,283.500836 L82.798206,283.500836 C84.0523229,283.746691 85.2102711,284.062791 86.1935458,284.529135 C87.2023346,285.018894 88.0894407,285.653044 88.6546765,286.560366 C89.0236498,287.145735 89.2454263,287.879398 89.2454263,288.638427 C89.2454263,290.205265 88.3602829,291.549663 87.1297175,292.43162 C85.9227037,293.311625 84.323165,293.824799 82.5764295,293.824799 C79.9190364,293.801384 77.6796823,292.4804 76.276406,291.377955 C75.7366844,290.938928 75.6621047,290.131119 76.0801436,289.592579" id="Fill-45" fill="#0E9493"></path>
                <g id="Group-49" transform="translate(90.280711, 276.288111)">
                    <mask id="mask-15" fill="white">
                        <use xlink:href="#path-14"></use>
                    </mask>
                    <g id="Clip-48"></g>
                    <path d="M9.72205496,10.8336238 L7.72802883,5.5731055 L5.73596532,10.8336238 L9.72205496,10.8336238 Z M10.7308438,13.5243711 L4.750728,13.5243711 L3.54567678,16.7048774 C3.32390025,17.2434171 2.8077301,17.5614677 2.26604584,17.5614677 C2.09333491,17.5614677 1.9461381,17.5361017 1.79894129,17.4873209 C1.0845461,17.2180511 0.741086876,16.4356075 0.986414894,15.7253595 L6.42484639,1.31747106 C6.64662292,0.778931347 7.18634456,0.435514721 7.72802883,0.460880722 C8.2952272,0.435514721 8.81139735,0.778931347 9.03317388,1.31747106 L14.4716054,15.7253595 C14.7169334,16.4356075 14.3715116,17.2180511 13.659079,17.4873209 C13.5354337,17.5361017 13.3627227,17.5614677 13.1919744,17.5614677 C12.6502902,17.5614677 12.13412,17.2434171 11.935895,16.7048774 L10.7308438,13.5243711 Z" id="Fill-47" fill="#0E9493" mask="url(#mask-15)"></path>
                </g>
                <g id="Group-52" transform="translate(107.093400, 276.288111)">
                    <mask id="mask-17" fill="white">
                        <use xlink:href="#path-16"></use>
                    </mask>
                    <g id="Clip-51"></g>
                    <path d="M8.53813419,5.69603304 C8.53813419,4.27748823 7.40570006,3.15162804 6.00438643,3.15162804 L2.97605737,3.15162804 L2.97605737,8.19165727 L6.00438643,8.19165727 C7.40570006,8.19165727 8.53813419,7.06579708 8.53813419,5.69603304 M11.9825396,15.5302364 C12.2298302,16.2404844 11.8353428,16.9995132 11.1229102,17.2434171 C11.0228164,17.2687831 10.8265539,17.3156126 10.5812259,17.3156126 L10.5557118,17.3156126 C10.3103838,17.3156126 9.94141046,17.2687831 9.59598861,17.048294 C9.27608087,16.8512197 9.00523874,16.5331691 8.80897633,16.1917037 C8.46355448,15.4834069 8.29084355,14.6014505 8.29084355,13.2551013 C8.26729206,12.7907083 8.16916086,12.4726577 7.99644993,12.2033879 C7.84925312,11.934118 7.5548595,11.6902141 7.25850325,11.4931398 C6.7423331,11.1516744 6.10251763,10.9565514 5.8807411,10.9058194 L2.97605737,10.9058194 L2.97605737,16.2151184 C2.97605737,16.9487812 2.36175602,17.5614677 1.59829522,17.5614677 C0.834834432,17.5614677 0.246047189,16.9487812 0.246047189,16.2151184 L0.246047189,1.78186399 C0.246047189,1.02478643 0.834834432,0.435514721 1.59829522,0.435514721 L1.62380934,0.435514721 L6.00438643,0.435514721 C8.93262165,0.435514721 11.270107,2.78479664 11.270107,5.69603304 C11.270107,7.31165217 10.5301977,8.73019698 9.35066059,9.70776362 C9.67056832,9.95361871 9.96496195,10.2463033 10.2122526,10.6131347 C10.7029086,11.3233828 11.0228164,12.2287539 11.0228164,13.2551013 C10.9992649,13.9887641 11.071882,14.4551082 11.1229102,14.6990121 C11.515435,14.8219396 11.8353428,15.1146243 11.9825396,15.5302364" id="Fill-50" fill="#0E9493" mask="url(#mask-17)"></path>
                </g>
                <g id="Group-55" transform="translate(122.794393, 276.288111)">
                    <mask id="mask-19" fill="white">
                        <use xlink:href="#path-18"></use>
                    </mask>
                    <g id="Clip-54"></g>
                    <path d="M0.00130795861,1.78186399 C0.00130795861,1.02478643 0.592057826,0.435514721 1.35355599,0.435514721 C2.0934653,0.435514721 2.73328077,1.02478643 2.73328077,1.78186399 L2.73328077,16.2151184 C2.73328077,16.9741472 2.0934653,17.5614677 1.35355599,17.5614677 C0.592057826,17.5614677 0.00130795861,16.9741472 0.00130795861,16.2151184 L0.00130795861,1.78186399 Z" id="Fill-53" fill="#0E9493" mask="url(#mask-19)"></path>
                </g>
                <g id="Group-58" transform="translate(128.522000, 276.288111)">
                    <mask id="mask-21" fill="white">
                        <use xlink:href="#path-20"></use>
                    </mask>
                    <g id="Clip-57"></g>
                    <path d="M8.94098026,10.8336238 L6.94695413,5.5731055 L4.95489062,10.8336238 L8.94098026,10.8336238 Z M9.94976907,13.5243711 L3.9696533,13.5243711 L2.76460208,16.7048774 C2.54282555,17.2434171 2.0266554,17.5614677 1.48497114,17.5614677 C1.31226021,17.5614677 1.1650634,17.5361017 1.01786659,17.4873209 C0.303471405,17.2180511 -0.0419504445,16.4356075 0.205340198,15.7253595 L5.6437717,1.31747106 C5.86554823,0.778931347 6.40723249,0.435514721 6.94695413,0.460880722 C7.51415251,0.435514721 8.03032266,0.778931347 8.25209918,1.31747106 L13.6905307,15.7253595 C13.9358587,16.4356075 13.5923995,17.2180511 12.8780043,17.4873209 C12.754359,17.5361017 12.5836107,17.5614677 12.4108997,17.5614677 C11.8692155,17.5614677 11.3530453,17.2434171 11.1567829,16.7048774 L9.94976907,13.5243711 Z" id="Fill-56" fill="#0E9493" mask="url(#mask-21)"></path>
                </g>
                <g id="Group-61" transform="translate(144.383259, 276.288111)">
                    <mask id="mask-23" fill="white">
                        <use xlink:href="#path-22"></use>
                    </mask>
                    <g id="Clip-60"></g>
                    <path d="M0.760450977,16.2155087 L0.760450977,1.78225424 C0.760450977,1.04859145 1.35120084,0.435904967 2.11466164,0.435904967 C2.87812243,0.435904967 3.49242378,1.04859145 3.49242378,1.78225424 L3.49242378,14.8457446 L10.1614206,14.8457446 C10.8738532,14.8457446 11.5136687,15.4584311 11.5136687,16.2155087 C11.5136687,16.9491715 10.8738532,17.561858 10.1614206,17.561858 L2.18727873,17.561858 L2.13821313,17.561858 L2.11466164,17.561858 C1.35120084,17.561858 0.760450977,16.9491715 0.760450977,16.2155087" id="Fill-59" fill="#0E9493" mask="url(#mask-23)"></path>
                </g>
                <g id="Group-64" transform="translate(50.017034, 110.433491)" fill="#0E9493">
                    <path d="M84.7673566,9.351664 C83.7644556,6.46774483 82.0294959,4.09699937 79.5722904,2.55357579 C77.115085,1.00820097 74.2202144,0.469661261 71.1663712,0.805272963 L5.42435032,6.63750191 C5.42435032,6.63750191 -0.279035441,8.31946289 0.0663864082,12.9809533 C0.0663864082,12.9809533 -0.441933245,17.4297596 5.21238691,18.6824498 L55.1866855,21.5195395 C58.7998765,21.6444182 62.3463383,22.6610095 65.5218642,24.6551674 C68.6973901,26.6532278 71.1428198,29.4005608 72.8090876,32.5908232 L95.9032859,75.1725336 C95.9032859,75.1725336 98.6313335,79.5998763 104.324906,78.3237714 C104.324906,78.3237714 109.863431,76.376443 107.345385,70.1871388 L84.7673566,9.351664 Z" id="Fill-62"></path>
                </g>
                <path d="M33.4440967,89.4583449 C34.7355034,86.6895483 36.7000902,84.506121 39.3025298,83.2163574 C41.9030068,81.9246426 44.8371299,81.6768363 47.8399448,82.31684 L112.661495,94.6954484 C112.661495,94.6954484 118.16273,96.9413151 117.348241,101.542317 C117.348241,101.542317 117.40712,106.020392 111.652706,106.69942 L61.6411178,104.521847 C58.0357772,104.287699 54.4029599,104.941362 51.04491,106.609664 C47.6829349,108.277966 44.9705883,110.769688 42.9903005,113.774583 L15.7058997,153.82945 C15.7058997,153.82945 12.5421496,157.962157 7.00951213,156.122146 C7.00951213,156.122146 1.6908007,153.630424 4.82707408,147.726 L33.4440967,89.4583449 Z" id="Fill-65" fill="#05AEA4"></path>
                <path d="M133.159338,64.916544 C132.156437,62.0345761 130.42344,59.6638306 127.968197,58.120407 C125.507066,56.5750322 122.612196,56.0364925 119.560315,56.3740554 L53.8163316,62.2043331 C53.8163316,62.2043331 48.1129458,63.8862941 48.4583677,68.5477846 C48.4583677,68.5477846 47.9480854,72.9965909 53.6063308,74.2473298 L103.576704,77.0844194 C107.191858,77.2112494 110.73832,78.2278407 113.913845,80.2219986 C117.089371,82.220059 119.536764,84.967392 121.201069,88.1576544 L144.295267,130.737414 C144.295267,130.737414 147.023315,135.166708 152.716887,133.890603 C152.716887,133.890603 158.257375,131.941323 155.737366,125.752019 L133.159338,64.916544 Z" id="Fill-67" fill="#C7E3BC"></path>
                <path d="M31.8190439,34.5907096 C33.1104506,31.821913 35.0750374,29.6384857 37.677477,28.3487221 C40.2799166,27.0570073 43.2160023,26.809201 46.2168546,27.4511559 L111.036442,39.8278131 C111.036442,39.8278131 116.53964,42.0736798 115.723189,46.6746821 C115.723189,46.6746821 115.782067,51.1527568 110.027653,51.8317852 L60.016065,49.6542116 C56.4126871,49.4200639 52.7798698,50.0756774 49.4198572,51.7420285 C46.0559195,53.4122821 43.3474981,55.9020527 41.3672104,58.9088994 L14.0808469,98.9637659 C14.0808469,98.9637659 10.9170968,103.096473 5.38445934,101.254511 C5.38445934,101.254511 0.0677105329,98.7627891 3.20202129,92.8583646 L31.8190439,34.5907096 Z" id="Fill-69" fill="#D3B593"></path>
                <g id="Group-73" transform="translate(45.140355, 0.320002)">
                    <mask id="mask-25" fill="white">
                        <use xlink:href="#path-24"></use>
                    </mask>
                    <g id="Clip-72"></g>
                    <path d="M85.4444122,8.80460877 C84.3512305,5.95386053 82.5456163,3.63970076 80.0413079,2.16847272 C77.5330742,0.701147132 74.6225026,0.248461579 71.5843605,0.679683593 L6.05626558,8.51972907 C6.05626558,8.51972907 0.405870673,10.3753496 0.896526709,15.0231814 C0.896526709,15.0231814 0.523628121,19.4856463 6.21916338,20.564677 L56.2543033,21.8720016 C59.869457,21.8856603 63.4473208,22.7929826 66.6797627,24.689579 C69.9180926,26.5900778 72.4459525,29.2613128 74.208389,32.398892 L98.6136202,74.250842 C98.6136202,74.250842 101.473164,78.5942819 107.127484,77.1445174 C107.127484,77.1445174 112.603205,75.0274319 109.894784,68.9200794 L85.4444122,8.80460877 Z" id="Fill-71" fill="#F26E45" mask="url(#mask-25)"></path>
                </g>
                <path d="M35.6551891,207.16615 C35.3490197,202.407098 34.5875215,197.154384 33.3706946,191.411912 C31.9203153,184.233334 29.6338582,180.64502 26.5113232,180.64502 C21.9384089,180.64502 19.1593331,189.901659 18.168208,208.411035 C21.9011191,208.639329 27.6516078,208.865672 35.4275247,209.092014 L35.6551891,207.16615 Z M49.5073903,213.255941 C49.5073903,215.14083 48.8263597,216.762303 47.4642985,218.118408 C46.1002748,219.476465 44.4712967,220.153542 42.5812897,220.153542 C41.9002591,220.153542 40.8777319,220.249152 39.5156708,220.438422 C38.1536096,220.62574 37.1310824,220.719399 36.4500518,220.719399 C37.1310824,220.719399 30.8860124,220.493056 17.7148418,220.042322 C17.7894215,228.922373 20.4016742,233.363375 25.5496374,233.363375 C26.5309494,233.363375 27.0255307,232.565321 27.0255307,230.967263 C27.0255307,228.381882 28.4641342,226.290163 31.3393786,224.692105 C33.6866771,223.398439 36.2616399,222.752581 39.0623046,222.752581 C44.7401762,222.752581 47.5781307,224.746739 47.5781307,228.735055 C47.5781307,233.023861 45.0227941,237.181933 39.9121208,241.209274 C34.8034102,245.234663 30.0146073,247.248333 25.5496374,247.248333 C17.9032537,247.248333 12.1880922,244.346853 8.40415284,238.543893 C5.29928145,233.722401 3.74880838,227.31651 3.74880838,219.330123 C3.74880838,204.180766 4.65554073,192.500699 6.47293069,184.287968 C9.87808357,168.840074 16.5392299,161.115151 26.4583323,161.115151 C35.2371501,161.115151 41.4841828,166.469328 45.1915798,177.175732 C48.0687868,185.470414 49.5073903,194.407051 49.5073903,203.97979 L49.5073903,213.255941 Z" id="Fill-74" fill="#F26E45"></path>
                <path d="M98.3321799,190.917665 C98.3321799,193.625973 97.0819883,195.885499 94.5835678,197.690387 C92.0871098,199.497227 89.4356046,200.398696 86.6369026,200.398696 C82.6979159,200.398696 80.7313666,198.669905 80.7313666,195.20647 C80.7313666,191.142057 80.2367853,187.682524 79.2574358,184.82202 C77.8168697,180.457117 75.4695712,178.275641 72.2155404,178.275641 C71.0811436,178.275641 70.2470284,179.028816 69.7171199,180.537117 C69.6425401,180.989803 69.3775859,182.232737 68.9242197,184.269822 C66.4257992,196.636723 65.1756076,208.929477 65.1756076,221.148084 C65.1756076,226.726653 65.2148601,229.669109 65.2914024,229.969599 C65.8193483,232.082782 67.5974858,233.136447 70.6277775,233.136447 C73.2007777,233.136447 74.7512508,232.49254 75.2831219,231.202777 C75.4322814,230.673993 75.5088237,228.742275 75.5088237,225.40567 C75.5088237,223.054437 76.35864,221.142231 78.0641603,219.663198 C79.7657555,218.184165 81.7911836,217.446599 84.1365194,217.446599 C88.5269096,217.446599 90.7230861,219.477831 90.7230861,223.542245 C90.7230861,239.195018 84.0246499,247.021405 70.6277775,247.021405 C62.526065,247.021405 57.0385679,244.311145 54.1633235,238.894529 C52.1928489,235.208654 51.2095742,229.261302 51.2095742,221.058328 C51.2095742,213.231941 51.7021929,204.652379 52.6854675,195.319642 C53.7452846,184.935191 55.032766,177.822955 56.5479119,173.984884 C59.5723157,166.080448 64.7968211,162.131157 72.2155404,162.131157 C79.7853817,162.131157 86.1069941,165.104832 91.1784149,171.050233 C95.9475915,176.620997 98.3321799,183.241523 98.3321799,190.917665" id="Fill-76" fill="#F26E45"></path>
                <path d="M131.826912,214.059263 C131.826912,209.618261 131.179246,206.234827 129.885877,203.899204 C129.277464,202.995784 128.441386,201.567483 127.375681,199.610398 C126.46306,197.879657 124.904737,194.49232 122.696785,189.450339 C119.120884,191.784012 115.888442,196.375258 112.997496,203.222127 C110.485337,209.019233 109.231221,213.948043 109.231221,218.010505 C109.231221,225.31006 112.846374,229.713988 120.074719,231.218387 C120.528085,230.992044 121.175751,230.841799 122.011829,230.767652 C125.511188,230.314967 128.137179,228.209589 129.885877,224.445664 C131.179246,221.511013 131.826912,218.04953 131.826912,214.059263 M145.679113,212.189984 C145.679113,228.121783 140.189654,238.037938 129.216622,241.946254 C127.852598,243.598946 125.997919,244.387243 123.65062,244.311145 C115.325168,244.010656 108.58748,241.456495 103.441479,236.650613 C98.0638891,231.688633 95.3790193,225.114937 95.3790193,216.92367 C95.3790193,207.608494 97.9893094,198.176244 103.211852,188.632774 C109.570754,176.987828 117.066016,171.163404 125.695674,171.163404 C128.722041,171.163404 131.069339,172.252191 132.735607,174.429765 C133.56776,175.559527 134.664867,178.076615 136.028891,181.98493 C136.482257,183.261035 138.260394,187.128375 141.365266,193.590851 C143.710601,198.55088 145.074625,202.986028 145.453412,206.892392 C145.602571,208.470938 145.679113,210.236802 145.679113,212.189984" id="Fill-78" fill="#F26E45"></path>
            </g>
        </g>
    </g>
</svg>